<mxfile host="app.diagrams.net" modified="2023-11-06T07:22:47.107Z" agent="Mozilla/5.0 (Macintosh; Intel Mac OS X 10_15_7) AppleWebKit/537.36 (KHTML, like Gecko) Chrome/118.0.0.0 Safari/537.36" etag="M7zRFI0pkZnzpWRH6dDk" version="22.0.8" type="device">
  <diagram name="Trang-1" id="8PEp2E8-V6UJpedMga6y">
    <mxGraphModel dx="1194" dy="790" grid="1" gridSize="10" guides="1" tooltips="1" connect="1" arrows="1" fold="1" page="1" pageScale="1" pageWidth="827" pageHeight="1169" math="0" shadow="0">
      <root>
        <mxCell id="0" />
        <mxCell id="1" parent="0" />
        <mxCell id="ItuwBVfe0kWuvM1JlpNe-2" value="Start" style="ellipse;whiteSpace=wrap;html=1;" vertex="1" parent="1">
          <mxGeometry x="260" y="10" width="120" height="80" as="geometry" />
        </mxCell>
        <mxCell id="ItuwBVfe0kWuvM1JlpNe-3" value="a,b" style="shape=parallelogram;perimeter=parallelogramPerimeter;whiteSpace=wrap;html=1;fixedSize=1;" vertex="1" parent="1">
          <mxGeometry x="260" y="130" width="120" height="60" as="geometry" />
        </mxCell>
        <mxCell id="ItuwBVfe0kWuvM1JlpNe-4" value="a = 0" style="rhombus;whiteSpace=wrap;html=1;" vertex="1" parent="1">
          <mxGeometry x="280" y="220" width="80" height="80" as="geometry" />
        </mxCell>
        <mxCell id="ItuwBVfe0kWuvM1JlpNe-7" value="pt bậc 1" style="rounded=0;whiteSpace=wrap;html=1;" vertex="1" parent="1">
          <mxGeometry x="420" y="230" width="120" height="60" as="geometry" />
        </mxCell>
        <mxCell id="ItuwBVfe0kWuvM1JlpNe-8" value="" style="endArrow=classic;html=1;rounded=0;entryX=0.5;entryY=0;entryDx=0;entryDy=0;" edge="1" parent="1" target="ItuwBVfe0kWuvM1JlpNe-10">
          <mxGeometry width="50" height="50" relative="1" as="geometry">
            <mxPoint x="319.5" y="300" as="sourcePoint" />
            <mxPoint x="319.5" y="350" as="targetPoint" />
          </mxGeometry>
        </mxCell>
        <mxCell id="ItuwBVfe0kWuvM1JlpNe-9" value="S" style="text;html=1;align=center;verticalAlign=middle;resizable=0;points=[];autosize=1;strokeColor=none;fillColor=none;" vertex="1" parent="1">
          <mxGeometry x="320" y="310" width="30" height="30" as="geometry" />
        </mxCell>
        <mxCell id="ItuwBVfe0kWuvM1JlpNe-10" value="delta = b*b - 4*a*c" style="rounded=0;whiteSpace=wrap;html=1;" vertex="1" parent="1">
          <mxGeometry x="260" y="350" width="120" height="60" as="geometry" />
        </mxCell>
        <mxCell id="ItuwBVfe0kWuvM1JlpNe-11" value="delta &amp;gt; 0" style="rhombus;whiteSpace=wrap;html=1;" vertex="1" parent="1">
          <mxGeometry x="280" y="450" width="80" height="80" as="geometry" />
        </mxCell>
        <mxCell id="ItuwBVfe0kWuvM1JlpNe-12" value="pt có 2 nghiệm&lt;br&gt;x1 = (-b +&amp;nbsp;Sqrt(delta)) / 2*a&lt;br&gt;x1 = (-b - Sqrt(delta)) / 2*a" style="rounded=0;whiteSpace=wrap;html=1;" vertex="1" parent="1">
          <mxGeometry x="414" y="460" width="176" height="60" as="geometry" />
        </mxCell>
        <mxCell id="ItuwBVfe0kWuvM1JlpNe-13" value="delta = 0" style="rhombus;whiteSpace=wrap;html=1;" vertex="1" parent="1">
          <mxGeometry x="280" y="580" width="80" height="70" as="geometry" />
        </mxCell>
        <mxCell id="ItuwBVfe0kWuvM1JlpNe-15" value="pt có 2 ngiệm kép&lt;br&gt;x1 = x2 = -b / (2*a)" style="rounded=0;whiteSpace=wrap;html=1;" vertex="1" parent="1">
          <mxGeometry x="414" y="590" width="120" height="60" as="geometry" />
        </mxCell>
        <mxCell id="ItuwBVfe0kWuvM1JlpNe-16" value="pt vô nghiệm" style="rounded=0;whiteSpace=wrap;html=1;" vertex="1" parent="1">
          <mxGeometry x="270" y="710" width="120" height="60" as="geometry" />
        </mxCell>
        <mxCell id="ItuwBVfe0kWuvM1JlpNe-17" value="" style="endArrow=classic;html=1;rounded=0;" edge="1" parent="1">
          <mxGeometry width="50" height="50" relative="1" as="geometry">
            <mxPoint x="360" y="259.5" as="sourcePoint" />
            <mxPoint x="420" y="259.5" as="targetPoint" />
          </mxGeometry>
        </mxCell>
        <mxCell id="ItuwBVfe0kWuvM1JlpNe-18" value="" style="endArrow=classic;html=1;rounded=0;entryX=0.5;entryY=0;entryDx=0;entryDy=0;" edge="1" parent="1" target="ItuwBVfe0kWuvM1JlpNe-11">
          <mxGeometry width="50" height="50" relative="1" as="geometry">
            <mxPoint x="319" y="410" as="sourcePoint" />
            <mxPoint x="319" y="440" as="targetPoint" />
          </mxGeometry>
        </mxCell>
        <mxCell id="ItuwBVfe0kWuvM1JlpNe-19" value="" style="endArrow=classic;html=1;rounded=0;entryX=0.5;entryY=0;entryDx=0;entryDy=0;" edge="1" parent="1">
          <mxGeometry width="50" height="50" relative="1" as="geometry">
            <mxPoint x="320" y="530" as="sourcePoint" />
            <mxPoint x="320.5" y="580" as="targetPoint" />
          </mxGeometry>
        </mxCell>
        <mxCell id="ItuwBVfe0kWuvM1JlpNe-20" value="" style="endArrow=classic;html=1;rounded=0;entryX=0.5;entryY=0;entryDx=0;entryDy=0;exitX=0.5;exitY=1;exitDx=0;exitDy=0;" edge="1" parent="1" source="ItuwBVfe0kWuvM1JlpNe-13">
          <mxGeometry width="50" height="50" relative="1" as="geometry">
            <mxPoint x="320" y="660" as="sourcePoint" />
            <mxPoint x="320.5" y="710" as="targetPoint" />
          </mxGeometry>
        </mxCell>
        <mxCell id="ItuwBVfe0kWuvM1JlpNe-21" value="" style="endArrow=classic;html=1;rounded=0;entryX=0.021;entryY=0.392;entryDx=0;entryDy=0;entryPerimeter=0;" edge="1" parent="1" target="ItuwBVfe0kWuvM1JlpNe-15">
          <mxGeometry width="50" height="50" relative="1" as="geometry">
            <mxPoint x="360" y="614.5" as="sourcePoint" />
            <mxPoint x="410" y="614.5" as="targetPoint" />
          </mxGeometry>
        </mxCell>
        <mxCell id="ItuwBVfe0kWuvM1JlpNe-22" value="" style="endArrow=classic;html=1;rounded=0;entryX=0;entryY=0.5;entryDx=0;entryDy=0;" edge="1" parent="1" target="ItuwBVfe0kWuvM1JlpNe-12">
          <mxGeometry width="50" height="50" relative="1" as="geometry">
            <mxPoint x="360" y="490" as="sourcePoint" />
            <mxPoint x="360.5" y="540" as="targetPoint" />
          </mxGeometry>
        </mxCell>
        <mxCell id="ItuwBVfe0kWuvM1JlpNe-23" value="Đ" style="text;html=1;align=center;verticalAlign=middle;resizable=0;points=[];autosize=1;strokeColor=none;fillColor=none;" vertex="1" parent="1">
          <mxGeometry x="365" y="240" width="30" height="30" as="geometry" />
        </mxCell>
        <mxCell id="ItuwBVfe0kWuvM1JlpNe-24" value="Đ" style="text;html=1;align=center;verticalAlign=middle;resizable=0;points=[];autosize=1;strokeColor=none;fillColor=none;" vertex="1" parent="1">
          <mxGeometry x="365" y="458" width="30" height="30" as="geometry" />
        </mxCell>
        <mxCell id="ItuwBVfe0kWuvM1JlpNe-25" value="S" style="text;html=1;align=center;verticalAlign=middle;resizable=0;points=[];autosize=1;strokeColor=none;fillColor=none;" vertex="1" parent="1">
          <mxGeometry x="320" y="538" width="30" height="30" as="geometry" />
        </mxCell>
        <mxCell id="ItuwBVfe0kWuvM1JlpNe-27" value="Đ" style="text;html=1;align=center;verticalAlign=middle;resizable=0;points=[];autosize=1;strokeColor=none;fillColor=none;" vertex="1" parent="1">
          <mxGeometry x="365" y="590" width="30" height="30" as="geometry" />
        </mxCell>
        <mxCell id="ItuwBVfe0kWuvM1JlpNe-29" value="S" style="text;html=1;align=center;verticalAlign=middle;resizable=0;points=[];autosize=1;strokeColor=none;fillColor=none;" vertex="1" parent="1">
          <mxGeometry x="325" y="658" width="30" height="30" as="geometry" />
        </mxCell>
        <mxCell id="ItuwBVfe0kWuvM1JlpNe-30" value="" style="endArrow=classic;html=1;rounded=0;" edge="1" parent="1">
          <mxGeometry width="50" height="50" relative="1" as="geometry">
            <mxPoint x="320" y="190" as="sourcePoint" />
            <mxPoint x="321" y="220" as="targetPoint" />
          </mxGeometry>
        </mxCell>
        <mxCell id="ItuwBVfe0kWuvM1JlpNe-31" value="" style="endArrow=classic;html=1;rounded=0;entryX=0.5;entryY=0;entryDx=0;entryDy=0;" edge="1" parent="1" target="ItuwBVfe0kWuvM1JlpNe-3">
          <mxGeometry width="50" height="50" relative="1" as="geometry">
            <mxPoint x="320" y="90" as="sourcePoint" />
            <mxPoint x="320" y="120" as="targetPoint" />
          </mxGeometry>
        </mxCell>
        <mxCell id="ItuwBVfe0kWuvM1JlpNe-32" value="" style="endArrow=none;html=1;rounded=0;" edge="1" parent="1">
          <mxGeometry width="50" height="50" relative="1" as="geometry">
            <mxPoint x="534" y="260" as="sourcePoint" />
            <mxPoint x="640" y="260" as="targetPoint" />
          </mxGeometry>
        </mxCell>
        <mxCell id="ItuwBVfe0kWuvM1JlpNe-33" value="" style="endArrow=none;html=1;rounded=0;" edge="1" parent="1">
          <mxGeometry width="50" height="50" relative="1" as="geometry">
            <mxPoint x="590" y="488" as="sourcePoint" />
            <mxPoint x="640" y="489" as="targetPoint" />
          </mxGeometry>
        </mxCell>
        <mxCell id="ItuwBVfe0kWuvM1JlpNe-34" value="" style="endArrow=none;html=1;rounded=0;" edge="1" parent="1">
          <mxGeometry width="50" height="50" relative="1" as="geometry">
            <mxPoint x="520" y="614.5" as="sourcePoint" />
            <mxPoint x="640" y="615" as="targetPoint" />
          </mxGeometry>
        </mxCell>
        <mxCell id="ItuwBVfe0kWuvM1JlpNe-36" value="" style="endArrow=none;html=1;rounded=0;" edge="1" parent="1">
          <mxGeometry width="50" height="50" relative="1" as="geometry">
            <mxPoint x="640" y="840" as="sourcePoint" />
            <mxPoint x="640" y="260" as="targetPoint" />
          </mxGeometry>
        </mxCell>
        <mxCell id="ItuwBVfe0kWuvM1JlpNe-41" style="edgeStyle=orthogonalEdgeStyle;rounded=0;orthogonalLoop=1;jettySize=auto;html=1;exitX=0.5;exitY=1;exitDx=0;exitDy=0;" edge="1" parent="1" source="ItuwBVfe0kWuvM1JlpNe-37">
          <mxGeometry relative="1" as="geometry">
            <mxPoint x="320" y="910" as="targetPoint" />
          </mxGeometry>
        </mxCell>
        <mxCell id="ItuwBVfe0kWuvM1JlpNe-37" value="x1, x2" style="shape=parallelogram;perimeter=parallelogramPerimeter;whiteSpace=wrap;html=1;fixedSize=1;" vertex="1" parent="1">
          <mxGeometry x="260" y="810" width="120" height="60" as="geometry" />
        </mxCell>
        <mxCell id="ItuwBVfe0kWuvM1JlpNe-38" value="" style="endArrow=classic;html=1;rounded=0;entryX=1;entryY=0.5;entryDx=0;entryDy=0;" edge="1" parent="1" target="ItuwBVfe0kWuvM1JlpNe-37">
          <mxGeometry width="50" height="50" relative="1" as="geometry">
            <mxPoint x="640" y="840" as="sourcePoint" />
            <mxPoint x="690" y="790" as="targetPoint" />
          </mxGeometry>
        </mxCell>
        <mxCell id="ItuwBVfe0kWuvM1JlpNe-39" value="" style="endArrow=classic;html=1;rounded=0;" edge="1" parent="1">
          <mxGeometry width="50" height="50" relative="1" as="geometry">
            <mxPoint x="320" y="770" as="sourcePoint" />
            <mxPoint x="320" y="810" as="targetPoint" />
          </mxGeometry>
        </mxCell>
        <mxCell id="ItuwBVfe0kWuvM1JlpNe-42" value="End" style="ellipse;whiteSpace=wrap;html=1;" vertex="1" parent="1">
          <mxGeometry x="260" y="910" width="120" height="80" as="geometry" />
        </mxCell>
      </root>
    </mxGraphModel>
  </diagram>
</mxfile>
